<svg width="104" height="58" viewBox="0 0 104 58" fill="none" xmlns="http://www.w3.org/2000/svg">
<path fill-rule="evenodd" clip-rule="evenodd" d="M100.306 58C102.678 52.8321 104 47.0825 104 41.024C104 18.5225 85.759 0.281494 63.2575 0.281494C40.7561 0.281494 22.5151 18.5225 22.5151 41.024C22.5151 47.0825 23.8375 52.8321 26.2094 58H100.306Z" fill="#CD6C6F"/>
<path d="M2.99265 23.1472C5.53902 15.9324 14.4515 18.0544 14.4515 18.0544C14.4515 18.0544 16.1491 10.4152 26.3347 12.5372" stroke="#252525" stroke-width="5"/>
<path d="M29.3055 28.24C31.8519 21.0252 40.7643 23.1472 40.7643 23.1472C40.7643 23.1472 42.4619 15.508 52.6475 17.63" stroke="#252525" stroke-width="5"/>
<path d="M55.6183 33.3327C58.1647 26.1179 67.0771 28.2399 67.0771 28.2399C67.0771 28.2399 68.7747 20.6007 78.9604 22.7227" stroke="#252525" stroke-width="5"/>
</svg>
